<?xml version="1.0" encoding="UTF-8"?>
<svg id="Layer_1" xmlns="http://www.w3.org/2000/svg" version="1.1" viewBox="0 0 848.94 1446.43">
  <defs>
    <style>
      .st0 {
        fill: #F5F2EB;
      }
    </style>
  </defs>
  <path class="st0" d="M453.92.03c.22.79.87,1.19,2.55,1.33,80.74,6.52,156.84,36.64,220.95,86.22,39.97,30.91,74.05,68,101.2,111.04,44.16,69.99,70.25,151.83,70.26,235.46l.06,590.32c.01,117.89-55.1,230.6-140.62,309.92-68.46,63.49-155.16,102.62-248.19,110.94-1.12.1-1.39.66-1.4,1.17l-61.44-.59c-97.23-6.83-187.56-46.6-258.7-113.43C52.39,1251.42-.04,1140.55,0,1020.78L.17,436.51c.03-109.51,41.83-214.98,114.47-295.99,25.4-28.32,54.07-52.46,85.86-73.21C258.61,29.4,324.37,6.7,393.47,1.09c3.13-.25,5.57,1.07,7.44-1.09l53.01.03ZM781.6,1176.18c20.31-45.94,33.74-96.05,33.75-146.95l.05-596.4c0-76.69-24.81-152.32-65.34-216.48-42.26-66.89-103.59-119.32-175.62-151.13C432.54,2.56,270.23,35.55,159.61,142.31c-77.96,75.24-125.64,181.09-125.67,290.48l-.15,592.89c-.02,67.07,20.69,132.77,53.98,189.94,47.75,81.99,123.92,145.24,213.04,176.55,133.86,47.03,279.58,13.75,383-81.02,41.53-38.05,74.92-83.23,97.78-134.96Z"/>
  <path class="st0" d="M510.23,1260.14l-6.73,4.5,28.85,40.62-.99-50.82-9.99,1.8c-.78-.55-1.59-2.56-1.56-4.28l27.03-10.26c.98-.37,2.38,3.24,1.49,4.08l-7.99,4.75,30.4,40.01-3.68-51.51-8.33,1.44c-1.53.26-1.98-3.48-.35-4.11l19.74-7.6c.88-.34,1.92,2.01,1.76,2.81-.64,3.29-7.9,1.69-7.4,8.75l4.87,68.72-5.91,2.36-34.58-45.28.91,57.2c.03,1.93-4.6,3.46-5.81,1.78l-39.95-55.56c-1.39-1.93-6.04.37-7.84.33s-2.24-3.86-.52-4.48l25.66-9.22c.85.59,2.31,3.05.91,3.98Z"/>
  <path class="st0" d="M311.1,1324.38l-27.98-11.49c.07-2.16.42-2.88.94-3.38,1.92-1.84,5.41,1.02,9.39.5l12.17-26.78-30.71-13.8-11.59,26.58c-.85,1.95,5.86,3.59,6.88,6.48.33.92-.66,4.03-1.79,3.53l-27.81-12.49c-.39-1.12.2-3.25.83-3.74,1.94-1.53,5.89,1.99,9.79,1.08l25.01-55.44c1.13-2.5-7.47-4.7-6.5-7.62.6-1.8,2.02-2.31,4.09-1.33l23.75,11.17c1.15.54.65,2.24.24,2.82-2,2.82-5.75-.76-9.83,0l-11.06,24.32,30.45,13.77,10.92-23.99c1.04-2.28-5.61-3.89-6.65-6.52-.43-1.09.6-3.75,2.33-3.03l24.9,10.42c1.75.73,2.14,1.57,1.61,3.41-1.06,3.69-9-2.14-10.33.81l-25.29,56.08,7.68,4.53c.71.58-.39,4.36-1.41,4.13Z"/>
  <path class="st0" d="M425.24,1268.74l24.88.53c.4,1.72.29,3.07-.04,4.31-3.47.21-6.32.32-9.47,1.83l-2.44,46.57c-2.18,14.45-12.54,22.09-26.39,21.88-15.95-.24-28.14-9.93-27.72-26.6l1.13-44.13c-2.39-2.52-6.51-1.76-7.77-2.82-.64-.54-1.07-2.02-.55-4.17l30.52,1.38.02,4.74c-3.56.06-6.28-.19-9.92,1.22l-1.19,42.42c-.24,8.62,4.45,16.08,11.38,18.61,7.88,2.87,16.85,1.65,21.74-5.33,3.5-4.99,4.59-11.15,4.76-17.21l1.08-36.77c-5.95-3.32-11.38.7-10.03-6.43Z"/>
  <path class="st0" d="M626.22,1192.1c1.16-.98,2.55-.95,3.34-.41,1.12.77,1.51,2.64.14,3.82-1.88,1.63-3.59,2.78-5.26,5.39l29.07,34.9c5.49,6.6,13.65,7.23,20.76,3.19,10.1-5.73,13.64-18.08,5.94-27.54l-27.14-33.33c-5.53,1.24-8.82,6.13-10.83,4.61-.75-.57-1.79-2.33-.78-3.22l16.09-14.05c1.5-1.31,2.98-1.23,4.17.36,2.16,2.88-6.63,6.39-4.41,9.11l27.71,33.97c9.67,11.86,6.04,27.43-5.33,36.49-12.34,9.84-27.84,8.47-37.96-3.86l-26.14-31.84c-3.85.42-5.62,3.85-8.95,3.1-.93-.21-2.34-2.07-1.16-3.07l20.75-17.6Z"/>
  <path class="st0" d="M555.14,235.78l-60.09-.1c-.18,33.15-1.05,65.52-4.52,98.67-9.02,83.83-35.77,149.33-112.67,190.51-1.82.25-4.61-4.78-3.86-6.64,61.38-49.04,82.24-103.44,90.19-180.4,3.54-34.28,4.74-67.76,3.86-102.26-14.76-.18-28.59.31-43.13,2.6l-7.44-15.8,22.08.61h111.59s15.24-16.47,15.24-16.47c10.43,7.97,19.84,16.59,29.47,26.39-3.33,5.29-8.36,8.15-14.54,11.16-.31,65.13-.39,129.67-4.14,194.81-2.44,42.4-9.14,80.7-56.56,83.76,1.78-23.47-13.47-29.74-35.22-34.78-.59-2.82-.15-5.72.78-8.37l38.8,4.61c9.84,1.17,17.72-4.85,20.3-14.41,3.51-12.97,5.37-26.02,5.92-39.61l3.02-74.53.9-119.76Z"/>
  <path class="st0" d="M396.29,417.51c-6.22-14.76-14.19-27.02-25.72-37.64-4.9-4.51-8.97-9.98-15.49-12.75l.45,147.7c-6.68,7.94-16.43,11.14-26.62,11.49l.77-157.07c-21.42,23.7-43.52,44.89-69.32,62.63-1.93,1.33-4.12,1.86-5.27,1.15-1.3-.81-2.35-4.58-.83-6.1,32.2-32.3,59.84-67.56,83.34-106.85,11.64-19.46,22.19-38.19,30.31-59.72l-62.23.27c-10.27.04-19.76.97-29.89,2.3l-7.49-16.4c21.47,1.55,42.93,1.22,65.07,1.35l34.54.21,15.92-16.28,18.77,17.21c3.45,3.16,6.84,5.99,9.5,10.5-4.23,3.71-9.3,5.16-15.12,6.84-12.12,23.8-25.45,46.34-41.91,67.47l.11,21.71,17.25,6.4c12.51-16.41,20.93-34.6,29.61-54.01l22.13,15.96c2.65,1.91,5.26,4.07,5.89,7.53-3.67,1.84-7.07,1.91-10.91,2.61-11.4,11.39-22.73,21.82-35.44,33.05,18.69,8.94,38.29,22.58,35.51,44.11-.7,5.42-4.6,9.81-8.94,11.14s-11.79.4-13.98-4.81Z"/>
  <path class="st0" d="M353.18,225.11c-5.9,1.44-14.3-.56-15-6.7-2.16-19.1-8.29-36.83-21.37-51.34-1.05-1.17-.03-3.17.7-3.8.66-.58,1.82-1.81,3.41-1.23,20.75,7.47,46.12,19.93,46.1,42.73,0,9.21-4.49,18.05-13.85,20.35Z"/>
  <circle class="st0" cx="431.8" cy="641.51" r="22.68"/>
  <path class="st0" d="M196.37,1185.03c-16.16,5.53-31.9,27.48-25.92,44.77,2.46,7.12,9.63,14.09,16.92,15.86,4.65-.35,8.22-4.88,11.66-7.27,2.31-1.6,6.82,2.37,5.37,4.03l-10.03,11.47c-10.29-1.93-19.77-7.52-26.59-15.32-11.46-13.09-12.03-30.61-2.79-44.98,11.36-17.67,34.08-24,52.32-13.21,9.26,5.48,16.24,13.32,19.44,23.61l-11.05,11.99c-.88.96-3.49-1.24-3.95-2.28-1.61-3.69,3.93-7.95,5.12-14.43-3.97-12.89-18.14-18.47-30.5-14.24Z"/>
  <path class="st0" d="M316.15,1073.09c-15.71,0-28.4.81-42.79,3.34l-8.91-16.92,80.68,1.44,34.64-154.81-39.16.06-31.24,2.29-7.69-16.01c26.61,1.92,52.69,1.93,80.06,1.77l10.53-67.47,5.32-38.23-43.75-.03c-18.31-.01-35.82.17-54,3.16l-8.77-16.2,43.67,1.46,188.58-.05,19.9-23.34c11.36,9.21,21.09,18.74,30.49,29.48,1.42.82,1.25,5.33-.76,5.33l-148.6.26-16.93,105.66,79.85.06,16.46-16.67c9.37,7,18.5,13.9,26.39,22.49,2.35,2.55,0,6.28-2.45,7.64l-11.36,6.27-4.45,146.79h36.84s20.27-23.78,20.27-23.78l27.69,27.94c2.2,2.22,4.04,4.95,1.59,8.09h-282.12ZM490.94,906.02l-86.05.11-33.61,154.89,114.18-.16,5.48-154.85Z"/>
</svg>
