<?xml version="1.0" encoding="UTF-8"?>
<svg id="Layer_1" data-name="Layer 1" xmlns="http://www.w3.org/2000/svg" viewBox="0 0 4784.4 1446.4">
  <defs>
    <style>
      .cls-1 {
        fill: #F5F2EB;
      }
    </style>
  </defs>
  <g>
    <path class="cls-1" d="M1756.6,942.4c-52.4,59.3-119.5,90.3-201.2,90.3s-156.5-27.5-211.5-81.7c-54.2-55-81.7-127.2-81.7-216.6s12-114.3,37.8-166.8c24.9-52.4,60.2-91.1,105.7-116.1,44.7-24.9,94.6-37.8,148.7-37.8s85.1,9.5,121.2,27.5c35.2,18.1,61.9,37.8,80,59.3v2.6l-17.2,16.3c-9.5-14.6-21.5-26.7-33.5-36.1-41.3-31.8-86.8-47.3-137.6-47.3s-112.6,25.8-149.6,76.5-55,122.9-55,217.5,19.8,158.2,60.2,206.3c40.4,47.3,90.3,71.4,150.4,71.4s64.5-7.7,98-23.2c27.5-12.9,49.9-32.7,67.9-60.2l17.2,18.1Z"/>
    <path class="cls-1" d="M2404.8,413.7v619h-89.4v-314.6h-330.1v314.6h-89.4V413.7h89.4v282.8h330.1v-282.8h89.4Z"/>
    <path class="cls-1" d="M3079.6,413.7v349c0,51.6-5.2,90.3-9.5,116.1-4.3,24.9-18.9,49.9-38.7,73.9-18.9,24.1-46.4,43.8-81.7,58.5-35.2,14.6-75.7,21.5-121.2,21.5s-100.6-9.5-138.4-27.5c-37-18.9-63.6-43-79.1-72.2-16.3-29.2-25.8-68.8-22.4-117.8l4.3-62.8v-338.7h87.7v341.3c0,66.2-.9,113.5,5.2,141.8,6.9,28.4,20.6,52.4,49,73.1,28.4,21.5,67.1,31.8,114.3,31.8s71.4-6.9,102.3-21.5c30.1-13.8,54.2-30.9,68.8-51.6,14.6-21.5,25.8-43,29.2-65.3,3.4-21.5,8.6-56.7,8.6-104v-345.6h21.5Z"/>
    <path class="cls-1" d="M4131.9,413.7l-80.8,191.7-179.7,427.3h-27.5l-154.7-356.8-149.6,356.8h-28.4l-208-478-6.9-12c-3.4-7.7-6.9-18.1-12-30.1-3.4-9.5-7.7-19.8-12-26.7l-30.1-72.2h90.3l53.3,117.8,173.7,403.2c104.9-250.2,145.3-352.5,145.3-352.5h36.1l151.3,351.6,139.3-331.8c8.6-20.6,15.5-39.5,20.6-54.2l51.6-134.1h28.4Z"/>
    <path class="cls-1" d="M4784.4,413.7v349c0,51.6-5.2,90.3-9.5,116.1-4.3,24.9-18.9,49.9-38.7,73.9-18.9,24.1-46.4,43.8-81.7,58.5-35.2,14.6-75.7,21.5-121.2,21.5s-100.6-9.5-138.4-27.5c-37-18.9-63.6-43-79.1-72.2-16.3-29.2-25.8-68.8-22.4-117.8l4.3-62.8v-338.7h87.7v341.3c0,66.2-.9,113.5,5.2,141.8,6.9,28.4,20.6,52.4,49,73.1,28.4,21.5,67.1,31.8,114.3,31.8s71.4-6.9,102.3-21.5c30.1-13.8,54.2-30.9,68.8-51.6,14.6-21.5,25.8-43,29.2-65.3,3.4-21.5,8.6-56.7,8.6-104v-345.6h21.5Z"/>
  </g>
  <g>
    <path class="cls-1" d="M214.4,1187.2c-16.2,5.5-31.9,27.5-25.9,44.8,2.5,7.1,9.6,14.1,16.9,15.9,4.7-.3,8.2-4.9,11.7-7.3s6.8,2.4,5.4,4l-10,11.5c-10.3-1.9-19.8-7.5-26.6-15.3-11.5-13.1-12-30.6-2.8-45,11.4-17.7,34.1-24,52.3-13.2,9.3,5.5,16.2,13.3,19.4,23.6l-11,12c-.9,1-3.5-1.2-3.9-2.3-1.6-3.7,3.9-7.9,5.1-14.4-4-12.9-18.1-18.5-30.5-14.2Z"/>
    <g>
      <path class="cls-1" d="M453.9,0c.2.8.9,1.2,2.6,1.3,80.7,6.5,156.8,36.6,220.9,86.2,40,30.9,74,68,101.2,111,44.2,70,70.2,151.8,70.3,235.5v590.3c0,117.9-55,230.6-140.6,309.9-68.5,63.5-155.2,102.6-248.2,110.9-1.1,0-1.4.7-1.4,1.2l-61.4-.6c-97.2-6.8-187.6-46.6-258.7-113.4C52.4,1251.4,0,1140.5,0,1020.8L.2,436.5c0-109.5,41.8-215,114.5-296,25.4-28.3,54.1-52.5,85.9-73.2C258.6,29.4,324.4,6.7,393.5,1.1s5.6,1.1,7.4-1.1h53ZM781.6,1176.2c20.3-45.9,33.7-96,33.7-147V432.8c0-76.7-24.8-152.3-65.3-216.5-42.3-66.9-103.6-119.3-175.6-151.1C432.5,2.6,270.2,35.5,159.6,142.3c-78,75.2-125.6,181.1-125.7,290.5l-.2,592.9c0,67.1,20.7,132.8,54,189.9,47.8,82,123.9,145.2,213,176.5,133.9,47,279.6,13.7,383-81,41.5-38.1,74.9-83.2,97.8-135Z"/>
      <path class="cls-1" d="M510.2,1260.1l-6.7,4.5,28.8,40.6-1-50.8-10,1.8c-.8-.6-1.6-2.6-1.6-4.3l27-10.3c1-.4,2.4,3.2,1.5,4.1l-8,4.8,30.4,40-3.7-51.5-8.3,1.4c-1.5.3-2-3.5-.3-4.1l19.7-7.6c.9-.3,1.9,2,1.8,2.8-.6,3.3-7.9,1.7-7.4,8.8l4.9,68.7-5.9,2.4-34.6-45.3.9,57.2c0,1.9-4.6,3.5-5.8,1.8l-40-55.6c-1.4-1.9-6,.4-7.8.3s-2.2-3.9-.5-4.5l25.7-9.2c.9.6,2.3,3,.9,4Z"/>
      <path class="cls-1" d="M311.1,1324.4l-28-11.5c0-2.2.4-2.9.9-3.4,1.9-1.8,5.4,1,9.4.5l12.2-26.8-30.7-13.8-11.6,26.6c-.9,2,5.9,3.6,6.9,6.5s-.7,4-1.8,3.5l-27.8-12.5c-.4-1.1.2-3.2.8-3.7,1.9-1.5,5.9,2,9.8,1.1l25-55.4c1.1-2.5-7.5-4.7-6.5-7.6s2-2.3,4.1-1.3l23.8,11.2c1.1.5.6,2.2.2,2.8-2,2.8-5.7-.8-9.8,0l-11.1,24.3,30.5,13.8,10.9-24c1-2.3-5.6-3.9-6.7-6.5s.6-3.8,2.3-3l24.9,10.4c1.8.7,2.1,1.6,1.6,3.4-1.1,3.7-9-2.1-10.3.8l-25.3,56.1,7.7,4.5c.7.6-.4,4.4-1.4,4.1Z"/>
      <path class="cls-1" d="M425.2,1268.7l24.9.5c.4,1.7.3,3.1,0,4.3-3.5.2-6.3.3-9.5,1.8l-2.4,46.6c-2.2,14.4-12.5,22.1-26.4,21.9-16-.2-28.1-9.9-27.7-26.6l1.1-44.1c-2.4-2.5-6.5-1.8-7.8-2.8-.6-.5-1.1-2-.5-4.2l30.5,1.4v4.7c-3.5,0-6.3-.2-9.9,1.2l-1.2,42.4c-.2,8.6,4.4,16.1,11.4,18.6s16.8,1.6,21.7-5.3c3.5-5,4.6-11.2,4.8-17.2l1.1-36.8c-6-3.3-11.4.7-10-6.4Z"/>
      <path class="cls-1" d="M626.2,1192.1c1.2-1,2.5-.9,3.3-.4,1.1.8,1.5,2.6.1,3.8s-3.6,2.8-5.3,5.4l29.1,34.9c5.5,6.6,13.6,7.2,20.8,3.2,10.1-5.7,13.6-18.1,5.9-27.5l-27.1-33.3c-5.5,1.2-8.8,6.1-10.8,4.6s-1.8-2.3-.8-3.2l16.1-14.1c1.5-1.3,3-1.2,4.2.4,2.2,2.9-6.6,6.4-4.4,9.1l27.7,34c9.7,11.9,6,27.4-5.3,36.5-12.3,9.8-27.8,8.5-38-3.9l-26.1-31.8c-3.8.4-5.6,3.8-8.9,3.1s-2.3-2.1-1.2-3.1l20.7-17.6Z"/>
      <path class="cls-1" d="M555.1,235.8h-60.1c-.2,33-1.1,65.4-4.5,98.6-9,83.8-35.8,149.3-112.7,190.5-1.8.3-4.6-4.8-3.9-6.6,61.4-49,82.2-103.4,90.2-180.4,3.5-34.3,4.7-67.8,3.9-102.3-14.8-.2-28.6.3-43.1,2.6l-7.4-15.8,22.1.6h111.6s15.2-16.5,15.2-16.5c10.4,8,19.8,16.6,29.5,26.4-3.3,5.3-8.4,8.2-14.5,11.2-.3,65.1-.4,129.7-4.1,194.8s-9.1,80.7-56.6,83.8c1.8-23.5-13.5-29.7-35.2-34.8-.6-2.8-.1-5.7.8-8.4l38.8,4.6c9.8,1.2,17.7-4.8,20.3-14.4,3.5-13,5.4-26,5.9-39.6l3-74.5.9-119.8Z"/>
      <path class="cls-1" d="M396.3,417.5c-6.2-14.8-14.2-27-25.7-37.6-4.9-4.5-9-10-15.5-12.7l.4,147.7c-6.7,7.9-16.4,11.1-26.6,11.5l.8-157.1c-21.4,23.7-43.5,44.9-69.3,62.6-1.9,1.3-4.1,1.9-5.3,1.1s-2.3-4.6-.8-6.1c32.2-32.3,59.8-67.6,83.3-106.9,11.6-19.5,22.2-38.2,30.3-59.7l-62.2.3c-10.3,0-19.8,1-29.9,2.3l-7.5-16.4c21.5,1.5,42.9,1.2,65.1,1.3l34.5.2,15.9-16.3,18.8,17.2c3.4,3.2,6.8,6,9.5,10.5-4.2,3.7-9.3,5.2-15.1,6.8-12.1,23.8-25.4,46.3-41.9,67.5v21.7c.1,0,17.4,6.4,17.4,6.4,12.5-16.4,20.9-34.6,29.6-54l22.1,16c2.7,1.9,5.3,4.1,5.9,7.5-3.7,1.8-7.1,1.9-10.9,2.6-11.4,11.4-22.7,21.8-35.4,33,18.7,8.9,38.3,22.6,35.5,44.1-.7,5.4-4.6,9.8-8.9,11.1-4.1,1.3-11.8.4-14-4.8Z"/>
      <path class="cls-1" d="M353.2,225.1c-5.9,1.4-14.3-.6-15-6.7-2.2-19.1-8.3-36.8-21.4-51.3-1.1-1.2,0-3.2.7-3.8s1.8-1.8,3.4-1.2c20.8,7.5,46.1,19.9,46.1,42.7,0,9.2-4.5,18.1-13.9,20.3Z"/>
      <circle class="cls-1" cx="431.8" cy="641.5" r="22.7"/>
      <path class="cls-1" d="M316.2,1073.1c-15.7,0-28.4.8-42.8,3.3l-8.9-16.9,80.7,1.4,34.6-154.8h-39.2c0,0-31.2,2.4-31.2,2.4l-7.7-16c26.6,1.9,52.7,1.9,80.1,1.8l10.5-67.5,5.3-38.2h-43.7c-18.3,0-35.8.1-54,3.1l-8.8-16.2,43.7,1.5h188.6c0,0,19.9-23.4,19.9-23.4,11.4,9.2,21.1,18.7,30.5,29.5,1.4.8,1.3,5.3-.8,5.3l-148.6.3-16.9,105.7h79.8c0,0,16.5-16.6,16.5-16.6,9.4,7,18.5,13.9,26.4,22.5,2.3,2.6,0,6.3-2.4,7.6l-11.4,6.3-4.4,146.8h36.8s20.3-23.8,20.3-23.8l27.7,27.9c2.2,2.2,4,4.9,1.6,8.1h-282.1ZM490.9,906h-86c0,.1-33.6,155-33.6,155l114.2-.2,5.5-154.8Z"/>
    </g>
  </g>
</svg>
